<svg xmlns="http://www.w3.org/2000/svg" viewBox="0 0 512.12 432.73"><defs><style>.a{fill:#fff;}.b{fill:#f9d970;}.c{fill:#231f1c;}.d{fill:#467177;}.e{fill:none;}</style></defs><title>londonImage</title><rect class="a" x="131.46" y="217.79" width="28.14" height="14.14"/><rect class="a" x="179.58" y="217.79" width="28.14" height="14.14"/><rect class="a" x="128.44" y="255.11" width="82.31" height="175.91"/><rect class="a" x="116.49" y="231.92" width="106.2" height="23.19"/><polygon class="b" points="208.64 231.01 208.64 216.87 178.67 216.87 178.67 231.01 186.03 231.01 186.03 256.03 174.09 256.03 174.09 431.94 211.66 431.94 211.66 256.03 223.61 256.03 223.61 231.01 208.64 231.01"/><path class="c" d="M51.79,275.26h-30v-16h30Zm-28.14-1.84H50v-12.3H23.67Z" transform="translate(108.73 -42.42)"/><path class="c" d="M99.91,275.26H70v-16h30Zm-28.14-1.84H98.08v-12.3H71.77Z" transform="translate(108.73 -42.42)"/><path class="c" d="M103,474.36H18.79V296.62H103Zm-82.31-1.84h80.48V298.42H20.62Z" transform="translate(108.73 -42.42)"/><path class="c" d="M114.88,298.42H6.88v-25h108ZM8.68,296.59H113.05V275.26H8.68Z" transform="translate(108.73 -42.42)"/><path class="c" d="M55,330.33H33.57V308.9H55ZM35.38,328.5H53.17V310.73H35.41Z" transform="translate(108.73 -42.42)"/><path class="c" d="M88.15,330.33H66.72V308.9H88.15Zm-19.6-1.83H86.31V310.73H68.55Z" transform="translate(108.73 -42.42)"/><path class="c" d="M55,359.78H33.57V338.35H55ZM35.38,358H53.17V340.18H35.41Z" transform="translate(108.73 -42.42)"/><path class="c" d="M88.15,359.78H66.72V338.35H88.15ZM68.55,358H86.31V340.18H68.55Z" transform="translate(108.73 -42.42)"/><path class="c" d="M55,389.23H33.57V367.8H55Zm-19.56-1.81H53.17V369.63H35.41Z" transform="translate(108.73 -42.42)"/><path class="c" d="M88.15,389.23H66.72V367.8H88.15Zm-19.6-1.81H86.31V369.63H68.55Z" transform="translate(108.73 -42.42)"/><path class="c" d="M55,418.68H33.57V397.25H55Zm-19.59-1.84H53.17V399.08H35.41Z" transform="translate(108.73 -42.42)"/><path class="c" d="M88.15,418.68H66.72V397.25H88.15Zm-19.6-1.84H86.31V399.08H68.55Z" transform="translate(108.73 -42.42)"/><path class="c" d="M55,448.13H33.57V426.7H55Zm-19.59-1.84H53.17V428.53H35.41Z" transform="translate(108.73 -42.42)"/><path class="c" d="M88.15,448.13H66.72V426.7H88.15Zm-19.6-1.84H86.31V428.53H68.55Z" transform="translate(108.73 -42.42)"/><rect class="d" x="160.52" y="216.87" width="10.55" height="14.14"/><rect class="a" x="292.99" y="188.55" width="78.29" height="242.47"/><rect class="b" x="332.14" y="188.55" width="39.14" height="242.47"/><path class="c" d="M263.47,474.36H183.34V230.05h80.13Zm-78.29-1.84h76.45V231.89H185.18Z" transform="translate(108.73 -42.42)"/><path class="c" d="M254.58,269.53H192.23V256.35h62.35Zm-60.52-1.83h58.69v-9.51H194.06Z" transform="translate(108.73 -42.42)"/><path class="c" d="M254.58,302H192.23V288.85h62.35Zm-60.52-1.83h58.69v-9.52H194.06Z" transform="translate(108.73 -42.42)"/><path class="c" d="M254.58,334.53H192.23V321.35h62.35Zm-60.52-1.83h58.69v-9.52H194.06Z" transform="translate(108.73 -42.42)"/><path class="c" d="M254.58,367H192.23V353.85h62.35Zm-60.52-1.84h58.69v-9.51H194.06Z" transform="translate(108.73 -42.42)"/><path class="c" d="M254.58,399.53H192.23V386.35h62.35Zm-60.52-1.84h58.69v-9.51H194.06Z" transform="translate(108.73 -42.42)"/><path class="c" d="M254.58,432H192.23V418.85h62.35Zm-60.52-1.84h58.69v-9.51H194.06Z" transform="translate(108.73 -42.42)"/><rect class="a" x="30.11" y="135.81" width="78.7" height="78.7"/><rect class="a" x="34.19" y="213.84" width="70.55" height="217.27"/><rect class="a" x="42.59" y="76.12" width="53.75" height="15.37"/><rect class="a" x="34.19" y="106.44" width="70.55" height="23.65"/><polygon class="b" points="69.46 2.69 42.59 76.12 96.34 76.12 69.46 2.69"/><polygon class="b" points="112.64 141.53 112.64 130.09 105.66 130.09 105.66 107.36 106.31 107.36 105.66 106.2 105.66 105.52 105.27 105.52 97.26 91.36 97.26 77.03 97.65 77.03 97.26 75.95 97.26 75.2 96.98 75.2 69.46 0.02 51.83 48.21 61.7 75.2 61.98 75.2 61.98 75.95 62.38 77.03 61.98 77.03 61.98 91.36 70 105.52 70.38 105.52 70.38 106.2 71.03 107.36 70.38 107.36 70.38 130.09 77.37 130.09 77.37 141.53 74.45 141.53 74.45 208.79 77.37 208.79 77.37 220.23 70.38 220.23 70.38 432.03 105.66 432.03 105.66 220.23 112.64 220.23 112.64 208.79 109.73 208.79 109.73 141.53 112.64 141.53"/><path class="c" d="M-3,174.35H-75.46V147.94H-3Zm-70.6-1.83H-4.91V149.78H-73.63Z" transform="translate(108.73 -42.42)"/><polygon class="b" points="104.74 106.44 34.19 106.44 42.65 91.49 96.28 91.49 104.74 106.44"/><path class="c" d="M-3,474.42H-75.46V255.34H-3Zm-70.6-1.8H-4.91V257.17H-73.63Z" transform="translate(108.73 -42.42)"/><rect class="c" x="42.84" y="213.84" width="1.83" height="217.27"/><rect class="c" x="55.69" y="213.84" width="1.83" height="217.27"/><rect class="c" x="68.55" y="213.84" width="1.83" height="217.27"/><rect class="c" x="81.4" y="213.84" width="1.83" height="217.27"/><rect class="c" x="94.26" y="213.84" width="1.83" height="217.27"/><path class="c" d="M-11,119.42H-67.46l28.19-77Zm-53.8-1.8H-13.7L-39.27,47.77Z" transform="translate(108.73 -42.42)"/><path class="c" d="M1,257.85h-80.5V177.31H1ZM-77.73,256H-.83V179.15H-77.7Z" transform="translate(108.73 -42.42)"/><circle class="a" cx="69.46" cy="175.16" r="19.96"/><path class="c" d="M-39.27,238.92a21.34,21.34,0,0,1-21.34-21.34,21.35,21.35,0,0,1,21.34-21.34,21.34,21.34,0,0,1,21.34,21.34A21.35,21.35,0,0,1-39.27,238.92Zm0-39.93a18.6,18.6,0,0,0-18.59,18.59,18.59,18.59,0,0,0,18.59,18.59,18.59,18.59,0,0,0,18.59-18.59A18.61,18.61,0,0,0-39.27,199Z" transform="translate(108.73 -42.42)"/><rect class="c" x="34.19" y="266.25" width="70.55" height="1.83"/><rect class="c" x="34.19" y="274.42" width="70.55" height="1.83"/><rect class="c" x="34.19" y="318.49" width="70.55" height="1.83"/><rect class="c" x="34.19" y="326.66" width="70.55" height="1.83"/><rect class="c" x="34.19" y="370.74" width="70.55" height="1.83"/><rect class="c" x="34.19" y="378.91" width="70.55" height="1.83"/><path class="c" d="M-59.73,177.83h-7.61V151.92h7.61ZM-65.5,176h3.94V153.75H-65.5Z" transform="translate(108.73 -42.42)"/><path class="c" d="M-43.55,177.83h-7.61V151.92h7.61ZM-49.33,176h3.95V153.75h-3.95Z" transform="translate(108.73 -42.42)"/><path class="c" d="M-27.37,177.83H-35V151.92h7.61ZM-33.15,176h3.94V153.75h-3.94Z" transform="translate(108.73 -42.42)"/><path class="c" d="M-11.2,177.83h-7.61V151.92h7.61ZM-17,176H-13V153.75H-17Z" transform="translate(108.73 -42.42)"/><path class="c" d="M-2.42,149.78h-73.7l9.5-16.79h54.7ZM-73,147.94H-5.56L-13,134.83H-65.55Z" transform="translate(108.73 -42.42)"/><path class="c" d="M-11.47,134.83H-67V117.62h55.59ZM-65.23,133h51.92V119.42H-65.23Z" transform="translate(108.73 -42.42)"/><rect class="b" x="27.2" y="209.71" width="84.53" height="9.6"/><rect class="b" x="27.2" y="131.01" width="84.53" height="9.6"/><path class="c" d="M3.91,262.65H-82.45V251.21H3.91Zm-84.52-1.84H2.08v-7.76H-80.61Z" transform="translate(108.73 -42.42)"/><path class="c" d="M3.91,184H-82.45V172.52H3.91Zm-84.52-1.84H2.08v-7.76H-80.61Z" transform="translate(108.73 -42.42)"/><path class="c" d="M-51.48,130.58H-60.2v-8.71h8.72Zm-6.88-1.83h5v-5h-5Z" transform="translate(108.73 -42.42)"/><path class="c" d="M-40.43,130.58h-8.72v-8.71h8.72Zm-6.89-1.83h5v-5h-5Z" transform="translate(108.73 -42.42)"/><path class="c" d="M-29.39,130.58H-38.1v-8.71h8.71Zm-6.88-1.83h5v-5h-5Z" transform="translate(108.73 -42.42)"/><path class="c" d="M-18.34,130.58H-27v-8.71h8.71Zm-6.88-1.83h5v-5h-5Z" transform="translate(108.73 -42.42)"/><path class="a" d="M402.47,394.3c0-90.63-27.19-164.1-60.74-164.1S281,303.67,281,394.3a400.53,400.53,0,0,0,7.54,79.23H395A399,399,0,0,0,402.47,394.3Z" transform="translate(108.73 -42.42)"/><path class="b" d="M341.73,230.2a26.56,26.56,0,0,0-15.27,5.23c26.15,18.3,45.46,82.49,45.46,158.87a399,399,0,0,1-7.54,79.23H395a399,399,0,0,0,7.54-79.23C402.47,303.67,375.28,230.2,341.73,230.2Z" transform="translate(108.73 -42.42)"/><path class="c" d="M395.68,474.42H287.78l-.15-.73c-5-24.19-7.56-51.65-7.56-79.42,0-43.94,6.34-85.26,17.85-116.36,11.61-31.38,27.17-48.66,43.81-48.66s32.2,17.28,43.81,48.66c11.51,31.1,17.85,72.42,17.85,116.36,0,27.77-2.61,55.23-7.56,79.42Zm-106.4-1.83H394.19a402,402,0,0,0,7.37-78.32c0-90-26.84-163.19-59.83-163.19S281.9,304.29,281.9,394.27a403.11,403.11,0,0,0,7.38,78.35Z" transform="translate(108.73 -42.42)"/><path class="e" d="M322.41,423a228,228,0,0,0,37.21,26.56c3.61-4.37,7-8.67,10.08-12.83a372.31,372.31,0,0,0,29.37-46.28,188.63,188.63,0,0,1-31.86-13.67A291.94,291.94,0,0,1,322.41,423Z" transform="translate(108.73 -42.42)"/><path class="e" d="M281.14,382.89c-.1,3.77-.15,7.58-.15,11.41a428.08,428.08,0,0,0,3,51,216.48,216.48,0,0,0,34.18-22.39A300.51,300.51,0,0,1,281.14,382.89Z" transform="translate(108.73 -42.42)"/><path class="e" d="M330.63,348.28a225.28,225.28,0,0,0,35.84,25c1.1-1.43,2.19-2.86,3.23-4.26a369.64,369.64,0,0,0,25.82-39.78,190.9,190.9,0,0,1-32.32-15.12A294.54,294.54,0,0,1,330.63,348.28Z" transform="translate(108.73 -42.42)"/><path class="e" d="M326.43,348.31a295.46,295.46,0,0,1-36.67-38.43l-.14.08a380.72,380.72,0,0,0-8.35,68.59l.22.3A221.35,221.35,0,0,0,326.43,348.31Z" transform="translate(108.73 -42.42)"/><path class="e" d="M357.83,451.67a231.14,231.14,0,0,1-37.58-26.94,220.17,220.17,0,0,1-34.61,22.77,311.59,311.59,0,0,0,22.39,26H337.5A293.36,293.36,0,0,0,357.83,451.67Z" transform="translate(108.73 -42.42)"/><path class="e" d="M360.82,312.67a235.43,235.43,0,0,1-36.14-27,226.89,226.89,0,0,1-32.5,22.79,292,292,0,0,0,36.33,38A291.45,291.45,0,0,0,360.82,312.67Z" transform="translate(108.73 -42.42)"/><path class="e" d="M364.76,375.42a227.1,227.1,0,0,1-36.21-25.34,224.56,224.56,0,0,1-45.35,31,297.75,297.75,0,0,0,37.12,40.06A288.17,288.17,0,0,0,364.76,375.42Z" transform="translate(108.73 -42.42)"/><path class="c" d="M285.64,447.5a220.17,220.17,0,0,0,34.61-22.77,231.14,231.14,0,0,0,37.58,26.94,293.79,293.79,0,0,1-20.33,21.86h3.92c6.86-6.8,13.16-13.71,18.84-20.48A187.87,187.87,0,0,0,396,468.28c.17-.9.34-1.81.5-2.72a184.91,184.91,0,0,1-34.4-14.67c3.52-4.27,6.81-8.48,9.84-12.55a376.61,376.61,0,0,0,29.83-47l.73.21c0-2.45,0-4.89-.1-7.31l-2,3.79A184.17,184.17,0,0,1,369,374.58c1-1.32,2-2.64,3-3.93a373,373,0,0,0,25.86-39.82c-.23-1.47-.46-2.92-.7-4.37l-.18.33a189.07,189.07,0,0,1-32-14.86q3.66-4.5,7-9c5.24-7,10-13.95,14.25-20.56-.38-1.11-.77-2.21-1.16-3.29-4.52,7.11-9.61,14.59-15.29,22.2-2.24,3-4.63,6.09-7.14,9.22a233.26,233.26,0,0,1-35.77-26.6,293.28,293.28,0,0,0,38.77-40.48c-.62-.72-1.25-1.4-1.87-2.07a290.57,290.57,0,0,1-39,40.73c-7-6.38-13.38-13-19.25-19.47-.44.87-.87,1.76-1.3,2.67,5.66,6.23,11.8,12.49,18.43,18.59a222.69,222.69,0,0,1-32.18,22.48h0c-.29,1.2-.56,2.41-.83,3.64l.14-.08a295.46,295.46,0,0,0,36.67,38.43,221.35,221.35,0,0,1-44.94,30.54l-.22-.3c0,1.44-.1,2.89-.13,4.34a300.79,300.79,0,0,0,37,40A216.7,216.7,0,0,1,284,445.27c.22,1.84.45,3.67.7,5.47,5.76,7.4,12.29,15.11,19.56,22.79H308A310,310,0,0,1,285.64,447.5Zm113.43-57a372.59,372.59,0,0,1-29.37,46.24c-3.1,4.16-6.47,8.46-10.08,12.83A228.44,228.44,0,0,1,322.41,423a291.25,291.25,0,0,0,44.8-46.18,188.63,188.63,0,0,0,31.86,13.59ZM363.2,314.14a190.9,190.9,0,0,0,32.32,15.12A369.64,369.64,0,0,1,369.7,369c-1,1.4-2.13,2.83-3.23,4.26a225.28,225.28,0,0,1-35.84-25,293.26,293.26,0,0,0,32.57-34.2Zm-71-5.6a226.89,226.89,0,0,0,32.5-22.79,235.43,235.43,0,0,0,36.14,27,290,290,0,0,1-32.31,33.81,292,292,0,0,1-36.35-38.06Zm-9,72.57a224.56,224.56,0,0,0,45.35-31,226.92,226.92,0,0,0,36.21,25.31,288.34,288.34,0,0,1-44.44,45.68,297.51,297.51,0,0,1-37.12-40Z" transform="translate(108.73 -42.42)"/><rect class="a" x="164.49" y="413.55" width="148.11" height="17.56"/><path class="a" d="M129.82,216.84a86.76,86.76,0,1,0,86.75,86.77h0A86.76,86.76,0,0,0,129.82,216.84Zm0,160.17a73.41,73.41,0,1,1,73.4-73.42h0A73.41,73.41,0,0,1,129.82,377Z" transform="translate(108.73 -42.42)"/><path class="b" d="M129.82,216.84a90.08,90.08,0,0,0-9.85.58A86.57,86.57,0,0,1,174,245a73.39,73.39,0,0,1,0,117.25,86.47,86.47,0,0,1-54,27.56,86.76,86.76,0,1,0,19-172.48,88.62,88.62,0,0,0-9.07-.52Z" transform="translate(108.73 -42.42)"/><path class="c" d="M129.82,391.28a87.68,87.68,0,1,1,87.67-87.69h0A87.77,87.77,0,0,1,129.82,391.28Zm0-173.52a85.84,85.84,0,1,0,85.84,85.84h0a85.93,85.93,0,0,0-85.84-85.84Zm0,160.16a74.32,74.32,0,1,1,74.32-74.32A74.32,74.32,0,0,1,129.82,377.92Zm0-146.81a72.49,72.49,0,1,0,72.49,72.49h0A72.57,72.57,0,0,0,129.82,231.11Z" transform="translate(108.73 -42.42)"/><path class="b" d="M139.71,207a9.89,9.89,0,1,1-9.89-9.89,9.88,9.88,0,0,1,9.89,9.89Z" transform="translate(108.73 -42.42)"/><path class="b" d="M90.06,215a9.89,9.89,0,1,1-13.51-3.62A9.88,9.88,0,0,1,90.06,215Z" transform="translate(108.73 -42.42)"/><path class="b" d="M51.06,246.71a9.89,9.89,0,1,1-13.5,3.64v0A9.9,9.9,0,0,1,51.06,246.71Z" transform="translate(108.73 -42.42)"/><path class="b" d="M33.17,293.71a9.89,9.89,0,1,1-9.89,9.89,9.89,9.89,0,0,1,9.89-9.89Z" transform="translate(108.73 -42.42)"/><path class="b" d="M41.17,343.36a9.9,9.9,0,1,1-3.6,13.52h0A9.9,9.9,0,0,1,41.17,343.36Z" transform="translate(108.73 -42.42)"/><path class="b" d="M73,382.36a9.89,9.89,0,1,1,3.64,13.51h0A9.9,9.9,0,0,1,73,382.36Z" transform="translate(108.73 -42.42)"/><path class="b" d="M120,400.25a9.89,9.89,0,1,1,9.89,9.89,9.89,9.89,0,0,1-9.89-9.89Z" transform="translate(108.73 -42.42)"/><path class="b" d="M169.58,392.24a9.88,9.88,0,1,1,13.5,3.62,9.88,9.88,0,0,1-13.5-3.62Z" transform="translate(108.73 -42.42)"/><path class="b" d="M208.57,360.49a9.89,9.89,0,1,1,13.51-3.62,9.89,9.89,0,0,1-13.51,3.62Z" transform="translate(108.73 -42.42)"/><path class="b" d="M226.46,313.49a9.89,9.89,0,1,1,9.89-9.89,9.89,9.89,0,0,1-9.89,9.89Z" transform="translate(108.73 -42.42)"/><path class="b" d="M218.46,263.84a9.89,9.89,0,1,1,3.62-13.51,9.88,9.88,0,0,1-3.62,13.51Z" transform="translate(108.73 -42.42)"/><path class="b" d="M186.7,224.85a9.89,9.89,0,1,1-3.62-13.51,9.87,9.87,0,0,1,3.62,13.51Z" transform="translate(108.73 -42.42)"/><path class="c" d="M129.82,217.76a10.81,10.81,0,1,1,10.8-10.82v0A10.82,10.82,0,0,1,129.82,217.76Zm0-19.78a9,9,0,1,0,9,9,9,9,0,0,0-9-9Z" transform="translate(108.73 -42.42)"/><path class="c" d="M81.51,230.71a10.8,10.8,0,1,1,9.34-16.21h0a10.8,10.8,0,0,1-9.34,16.21Zm0-19.78a9,9,0,1,0,7.78,4.49h0a9,9,0,0,0-7.78-4.49Z" transform="translate(108.73 -42.42)"/><path class="c" d="M46.1,266.08a10.64,10.64,0,0,1-5.38-1.44,10.83,10.83,0,1,1,5.38,1.44Zm0-19.77a9,9,0,1,0,4.48,1.2,9.1,9.1,0,0,0-4.45-1.2Z" transform="translate(108.73 -42.42)"/><path class="c" d="M33.17,314.42A10.81,10.81,0,1,1,44,303.6a10.8,10.8,0,0,1-10.8,10.82Zm0-19.78a9,9,0,1,0,9,9,9,9,0,0,0-9-9h0Z" transform="translate(108.73 -42.42)"/><path class="c" d="M46.14,362.73a10.8,10.8,0,0,1-5.42-20.16h0a10.8,10.8,0,1,1,5.42,20.16Zm-4.51-18.58a9,9,0,1,0,12.29,3.32l0-.05a9,9,0,0,0-12.26-3.29Z" transform="translate(108.73 -42.42)"/><path class="c" d="M81.48,398.11a10.81,10.81,0,1,1,2.81-.37A10.23,10.23,0,0,1,81.48,398.11Zm0-19.79a9.76,9.76,0,0,0-2.34.31,9.08,9.08,0,0,0-5.45,4.18h0a9,9,0,1,0,7.79-4.49Z" transform="translate(108.73 -42.42)"/><path class="c" d="M129.82,411.05a10.81,10.81,0,1,1,10.8-10.82v0A10.79,10.79,0,0,1,129.82,411.05Zm0-19.77a9,9,0,1,0,9,9A9,9,0,0,0,129.82,391.28Z" transform="translate(108.73 -42.42)"/><path class="c" d="M178.16,398.11a10.82,10.82,0,1,1,5.38-1.45A10.69,10.69,0,0,1,178.16,398.11Zm0-19.79a9,9,0,1,0,2.33.31,9.86,9.86,0,0,0-2.36-.31Z" transform="translate(108.73 -42.42)"/><path class="c" d="M213.5,362.73a10.76,10.76,0,0,1-5.39-1.45h0a10.86,10.86,0,1,1,5.39,1.45Zm-4.47-3a24.58,24.58,0,1,1,0-.05Z" transform="translate(108.73 -42.42)"/><path class="c" d="M226.46,314.42a10.81,10.81,0,1,1,10.81-10.81h0A10.81,10.81,0,0,1,226.46,314.42Zm0-19.78a9,9,0,1,0,9,9,9,9,0,0,0-9-9h0Z" transform="translate(108.73 -42.42)"/><path class="c" d="M213.53,266.08a10.78,10.78,0,1,1,5.42-1.45A10.8,10.8,0,0,1,213.53,266.08Zm0-19.77A9.12,9.12,0,1,0,217,263.67a8.63,8.63,0,0,0,1.06-.62,9,9,0,0,0-4.56-16.74Z" transform="translate(108.73 -42.42)"/><path class="c" d="M178.12,230.71A10.8,10.8,0,1,1,189,219.94a10.66,10.66,0,0,1-1.45,5.37h0A10.79,10.79,0,0,1,178.12,230.71Zm0-19.78a9,9,0,1,0,7.79,13.49h0a9,9,0,0,0-3.28-12.26,9.13,9.13,0,0,0-4.48-1.23Z" transform="translate(108.73 -42.42)"/><rect class="c" x="237.63" y="187.78" width="1.83" height="146.81"/><rect class="c" x="128.9" y="230.2" width="1.83" height="146.81" transform="translate(-25.68 63.16) rotate(-30)"/><rect class="c" x="128.91" y="230.21" width="1.83" height="146.81" transform="translate(-89.3 221.81) rotate(-60)"/><rect class="c" x="165.14" y="260.27" width="146.81" height="1.83"/><rect class="c" x="56.41" y="302.78" width="146.81" height="1.83" transform="translate(-25.69 63.13) rotate(-29.99)"/><rect class="c" x="56.39" y="302.62" width="146.81" height="1.83" transform="translate(-89.25 221.8) rotate(-60.01)"/><polygon class="a" points="211.45 405.32 200.12 404.03 230.69 261.18 242.02 262.47 211.45 405.32"/><polygon class="a" points="265.65 405.32 276.98 404.03 246.41 261.18 235.07 262.47 265.65 405.32"/><polygon class="a" points="265.65 405.32 276.98 404.03 246.41 261.18 235.07 262.47 265.65 405.32"/><path class="c" d="M103.44,448.74l-13.16-1.5.21-1,30.75-143.66,13.16,1.49-.21,1Zm-11-3.09,9.5,1.08,30.19-141-9.5-1.08Z" transform="translate(108.73 -42.42)"/><path class="c" d="M156.2,448.74l-.18-.81L125.24,304.09l13.16-1.49.17.81,30.79,143.83Zm-28.75-143,30.19,141,9.5-1.08L137,304.61Z" transform="translate(108.73 -42.42)"/><circle class="b" cx="238.55" cy="261.18" r="18.14"/><path class="c" d="M129.82,322.65a19,19,0,1,1,19-19A19,19,0,0,1,129.82,322.65Zm0-36.27A17.22,17.22,0,1,0,147,303.6h0a17.24,17.24,0,0,0-17.22-17.18Z" transform="translate(108.73 -42.42)"/><rect class="a" x="185.51" y="398.48" width="106.07" height="15.07"/><polygon class="b" points="291.58 413.55 291.58 398.48 259.81 398.48 259.81 413.55 280.83 413.55 280.83 431.11 312.6 431.11 312.6 413.55 291.58 413.55"/><path class="c" d="M183.77,456.89H75.86V440H183.77ZM77.7,455.05H182V441.82H77.7Z" transform="translate(108.73 -42.42)"/><path class="c" d="M204.79,474.42h-150V455h150Zm-148.11-1.8H203V456.89H56.68Z" transform="translate(108.73 -42.42)"/><path class="a" d="M6.69,430.1a14.12,14.12,0,1,1,27.75-3.68A13.38,13.38,0,0,1,34,430.1a13,13,0,1,1-13.63,21,13,13,0,1,1-13.63-21Z" transform="translate(108.73 -42.42)"/><path class="b" d="M34,430.1a13.38,13.38,0,0,0,.49-3.68,14.09,14.09,0,0,0-20-12.84,14.11,14.11,0,0,1,8.26,12.84,13.83,13.83,0,0,1-.49,3.68,13,13,0,0,1,2,24A13,13,0,1,0,36.2,431a13.4,13.4,0,0,0-2.22-.9Z" transform="translate(108.73 -42.42)"/><path class="c" d="M30.08,456.42a13.85,13.85,0,0,1-9.76-4A13.89,13.89,0,1,1,5.6,429.54,15,15,0,1,1,35,423.78a14.69,14.69,0,0,1,0,5.76,13.9,13.9,0,0,1-5,26.89Zm-9.76-6.26h0a1,1,0,0,1,.69.31A12.06,12.06,0,1,0,33.68,431a.9.9,0,0,1-.61-1.11,13.2,13.2,0,1,0-25.5,0A.9.9,0,0,1,7,431,12.07,12.07,0,1,0,14,454.09a11.94,11.94,0,0,0,5.62-3.67,1.07,1.07,0,0,1,.69-.29Z" transform="translate(108.73 -42.42)"/><path class="c" d="M20.32,475.15a.92.92,0,0,1-.92-.92V428.17a.92.92,0,1,1,1.84,0v46.06a.92.92,0,0,1-.92.92Z" transform="translate(108.73 -42.42)"/><path class="c" d="M20.32,440.24a.9.9,0,0,1-.92-.89.94.94,0,0,1,.24-.64l5.78-6.36a.94.94,0,0,1,1.3-.06.92.92,0,0,1,.06,1.29L21,439.94A.85.85,0,0,1,20.32,440.24Z" transform="translate(108.73 -42.42)"/><path class="c" d="M20.32,447a.78.78,0,0,1-.52-.17l-7.55-5.25a.91.91,0,0,1-.35-1.25.93.93,0,0,1,1.26-.35l.14.1,7.54,5.25a.92.92,0,0,1,.22,1.29.9.9,0,0,1-.74.38Z" transform="translate(108.73 -42.42)"/><path class="a" d="M289,424.16a16,16,0,1,0-30.94,0,14.73,14.73,0,0,0,8.79,28.12,14.58,14.58,0,0,0,6.68-4.35A14.73,14.73,0,1,0,289,424.16Z" transform="translate(108.73 -42.42)"/><path class="b" d="M256.18,451.54a14.58,14.58,0,0,0,11.06.6" transform="translate(108.73 -42.42)"/><path class="b" d="M289,424.16a16,16,0,0,0-21.73-18.92,16,16,0,0,1,9.2,18.92,14.72,14.72,0,0,1,1.86,27.38,14.73,14.73,0,0,0,12.62-26.62A16.41,16.41,0,0,0,289,424.16Z" transform="translate(108.73 -42.42)"/><path class="c" d="M284.57,453.87a15.66,15.66,0,0,1-11.07-4.6,15.65,15.65,0,0,1-22.2-22.06,15.79,15.79,0,0,1,5.67-3.65,17.83,17.83,0,0,1-.38-3.58,16.94,16.94,0,0,1,33.88,0,16.49,16.49,0,0,1-.38,3.58,15.65,15.65,0,0,1-5.49,30.31ZM273.5,447a1,1,0,0,1,.69.31A13.81,13.81,0,1,0,288.7,425a.92.92,0,0,1-.62-1.11,14.5,14.5,0,0,0,.52-3.94,15.1,15.1,0,0,0-30.2,0,15.33,15.33,0,0,0,.52,3.94.91.91,0,0,1-.62,1.11,13.81,13.81,0,0,0,8.27,26.36,13.68,13.68,0,0,0,6.24-4.07A1.07,1.07,0,0,1,273.5,447Z" transform="translate(108.73 -42.42)"/><path class="c" d="M273.5,475.15a.92.92,0,0,1-.92-.92h0V422a.93.93,0,0,1,.93-.91.91.91,0,0,1,.91.91v52.27A.92.92,0,0,1,273.5,475.15Z" transform="translate(108.73 -42.42)"/><path class="c" d="M273.5,435.55a1,1,0,0,1-.68-.3L266.26,428a.92.92,0,0,1,1.36-1.24l6.56,7.22a.91.91,0,0,1-.06,1.3.88.88,0,0,1-.62.24Z" transform="translate(108.73 -42.42)"/><path class="c" d="M273.5,443.22a.91.91,0,0,1-.9-.93.94.94,0,0,1,.38-.74l8.56-6a.93.93,0,0,1,1.21.48.9.9,0,0,1-.21,1l-8.56,6A.81.81,0,0,1,273.5,443.22Z" transform="translate(108.73 -42.42)"/><path class="a" d="M-71.44,429.24a14.11,14.11,0,0,0-9.94-17.31,14.12,14.12,0,0,0-17.32,9.94,14.38,14.38,0,0,0-.49,3.69,15.16,15.16,0,0,0,.48,3.68,13,13,0,0,0-8.52,16.29,13,13,0,0,0,16.29,8.53A13,13,0,0,0-85,450.19a13,13,0,0,0,18.34,1.3,13,13,0,0,0,1.3-18.34,13.07,13.07,0,0,0-6-3.91Z" transform="translate(108.73 -42.42)"/><path class="b" d="M-100.34,453.42a12.71,12.71,0,0,0,5.51,1.24,12.46,12.46,0,0,0,4.24-.71" transform="translate(108.73 -42.42)"/><path class="b" d="M-71.44,429.24a14.11,14.11,0,0,0-9.94-17.31,14.21,14.21,0,0,0-9.21.63,14.12,14.12,0,0,1,8.11,16.68,13,13,0,0,1,8.53,16.29,13,13,0,0,1-6.9,7.89,13,13,0,0,0,17.42-5.88,13,13,0,0,0-5.88-17.42,14,14,0,0,0-2.13-.83Z" transform="translate(108.73 -42.42)"/><path class="c" d="M-75.32,455.53a13.81,13.81,0,0,1-9.75-4,13.88,13.88,0,0,1-19.65-.13,13.89,13.89,0,0,1,.13-19.65,13.91,13.91,0,0,1,4.8-3.1,15,15,0,0,1,12.14-17.4,15,15,0,0,1,17.4,12.14,14.38,14.38,0,0,1,.22,2.17,13.83,13.83,0,0,1-.32,3.08,13.91,13.91,0,0,1,8,17.94,13.89,13.89,0,0,1-13,8.95ZM-85,449.27h0a1,1,0,0,1,.68.31,12.08,12.08,0,0,0,17,1.14,12.07,12.07,0,0,0,1.13-17,12,12,0,0,0-5.49-3.58.94.94,0,0,1-.62-1.11,12.46,12.46,0,0,0,.46-3.44,13.21,13.21,0,0,0-13.56-12.84,13.23,13.23,0,0,0-12.85,12.84,13.27,13.27,0,0,0,.46,3.44.91.91,0,0,1-.62,1.11,12.07,12.07,0,0,0-7.92,15.12,12.07,12.07,0,0,0,15.12,7.93,12,12,0,0,0,5.48-3.58A1,1,0,0,1-85,449.27Z" transform="translate(108.73 -42.42)"/><path class="c" d="M-85,474.29a.9.9,0,0,1-1-.83V427.3a.92.92,0,0,1,1-.81.9.9,0,0,1,.81.81v46.12A.91.91,0,0,1-85,474.29Z" transform="translate(108.73 -42.42)"/><path class="c" d="M-85,439.42a.88.88,0,0,1-.68-.3l-5.79-6.36a.91.91,0,0,1,.18-1.28.91.91,0,0,1,1.18,0l5.78,6.36a.91.91,0,0,1,0,1.29h0A.81.81,0,0,1-85,439.42Z" transform="translate(108.73 -42.42)"/><path class="c" d="M-85,446.15a.93.93,0,0,1-.76-.39.94.94,0,0,1,.23-1.28l7.55-5.25a.93.93,0,0,1,1.22.43.89.89,0,0,1-.22,1.07L-84.55,446A.82.82,0,0,1-85,446.15Z" transform="translate(108.73 -42.42)"/></svg>