<svg xmlns="http://www.w3.org/2000/svg" viewBox="0 0 512.12 432.03"><defs><style>.a{fill:#fff;}.b{fill:#f9d970;}.c{fill:#231f1c;}.d{fill:#467177;}.e{fill:none;}</style></defs><title>londonImage</title><rect class="a" x="131.46" y="217.79" width="28.14" height="14.14"/><rect class="a" x="179.58" y="217.79" width="28.14" height="14.14"/><rect class="a" x="128.44" y="255.11" width="82.31" height="175.91"/><rect class="a" x="116.49" y="231.92" width="106.2" height="23.19"/><polygon class="b" points="208.64 230.8 208.64 216.66 178.67 216.66 178.67 230.8 186.03 230.8 186.03 255.82 174.09 255.82 174.09 431.73 211.66 431.73 211.66 255.82 223.61 255.82 223.61 230.8 208.64 230.8"/><path class="c" d="M231.43,168.35h-30v-16h30Zm-28.14-1.84h26.35v-12.3H203.31Z" transform="translate(-70.91 64.49)"/><path class="c" d="M279.55,168.35H249.64v-16h30Zm-28.14-1.84h26.31v-12.3H251.41Z" transform="translate(-70.91 64.49)"/><path class="c" d="M282.64,367.24H198.43V189.5h84.21Zm-82.31-1.84h80.48V191.3H200.26Z" transform="translate(-70.91 64.49)"/><path class="c" d="M294.52,191.51h-108v-25h108Zm-106.2-1.83H292.69V168.35H188.32Z" transform="translate(-70.91 64.49)"/><path class="c" d="M234.64,223.42H213.21V202h21.43ZM215,221.59h17.79V203.82H215.05Z" transform="translate(-70.91 64.49)"/><path class="c" d="M267.79,223.42H246.36V202h21.43Zm-19.6-1.83H266V203.82H248.19Z" transform="translate(-70.91 64.49)"/><path class="c" d="M234.64,252.87H213.21V231.44h21.43ZM215,251.09h17.79V233.27H215.05Z" transform="translate(-70.91 64.49)"/><path class="c" d="M267.79,252.87H246.36V231.44h21.43Zm-19.6-1.78H266V233.27H248.19Z" transform="translate(-70.91 64.49)"/><path class="c" d="M234.64,282.32H213.21V260.89h21.43Zm-19.56-1.81h17.73V262.72H215.05Z" transform="translate(-70.91 64.49)"/><path class="c" d="M267.79,282.32H246.36V260.89h21.43Zm-19.6-1.81H266V262.72H248.19Z" transform="translate(-70.91 64.49)"/><path class="c" d="M234.64,311.77H213.21V290.34h21.43Zm-19.59-1.84h17.76V292.17H215.05Z" transform="translate(-70.91 64.49)"/><path class="c" d="M267.79,311.77H246.36V290.34h21.43Zm-19.6-1.84H266V292.17H248.19Z" transform="translate(-70.91 64.49)"/><path class="c" d="M234.64,341.22H213.21V319.79h21.43Zm-19.59-1.84h17.76V321.62H215.05Z" transform="translate(-70.91 64.49)"/><path class="c" d="M267.79,341.22H246.36V319.79h21.43Zm-19.6-1.84H266V321.62H248.19Z" transform="translate(-70.91 64.49)"/><rect class="d" x="160.52" y="216.87" width="10.55" height="14.14"/><rect class="a" x="292.99" y="188.55" width="78.29" height="242.47"/><rect class="b" x="332.14" y="188.55" width="39.14" height="242.47"/><path class="c" d="M443.11,367.24H363V122.93h80.13Zm-78.29-1.84h76.45V124.77H364.82Z" transform="translate(-70.91 64.49)"/><path class="c" d="M434.22,162.62H371.87V149.44h62.35Zm-60.52-1.83h58.69v-9.51H373.7Z" transform="translate(-70.91 64.49)"/><path class="c" d="M434.22,195.09H371.87V181.94h62.35Zm-60.52-1.83h58.69v-9.52H373.7Z" transform="translate(-70.91 64.49)"/><path d="M434.22,227.62H371.87V214.44h62.35Zm-60.52-1.83h58.69v-9.52H373.7Z" transform="translate(-70.91 64.49)"/><path class="c" d="M434.22,260.09H371.87V246.94h62.35Zm-60.52-1.84h58.69v-9.51H373.7Z" transform="translate(-70.91 64.49)"/><path class="c" d="M434.22,292.62H371.87V279.44h62.35Zm-60.52-1.84h58.69v-9.51H373.7Z" transform="translate(-70.91 64.49)"/><path class="c" d="M434.22,325.09H371.87V311.94h62.35Zm-60.52-1.84h58.69v-9.51H373.7Z" transform="translate(-70.91 64.49)"/><rect class="a" x="30.11" y="135.81" width="78.7" height="78.7"/><rect class="a" x="34.19" y="213.84" width="70.55" height="217.27"/><rect class="a" x="42.59" y="76.12" width="53.75" height="15.37"/><rect class="a" x="34.19" y="106.44" width="70.55" height="23.65"/><polygon class="b" points="69.46 2.69 42.59 76.12 96.34 76.12 69.46 2.69"/><polygon class="b" points="112.64 141.53 112.64 130.09 105.66 130.09 105.66 107.36 106.31 107.36 105.66 106.2 105.66 105.52 105.27 105.52 97.26 91.36 97.26 77.03 97.65 77.03 97.26 75.95 97.26 75.2 96.98 75.2 69.46 0.02 51.83 48.21 61.7 75.2 61.98 75.2 61.98 75.95 62.38 77.03 61.98 77.03 61.98 91.36 70 105.52 70.38 105.52 70.38 106.2 71.03 107.36 70.38 107.36 70.38 130.09 77.37 130.09 77.37 141.53 74.45 141.53 74.45 208.79 77.37 208.79 77.37 220.23 70.38 220.23 70.38 432.03 105.66 432.03 105.66 220.23 112.64 220.23 112.64 208.79 109.73 208.79 109.73 141.53 112.64 141.53"/><path class="c" d="M176.64,67.44H104.18V41h72.46ZM106,65.61h68.69V42.87H106Z" transform="translate(-70.91 64.49)"/><polygon class="b" points="104.74 106.44 34.19 106.44 42.65 91.49 96.28 91.49 104.74 106.44"/><path class="c" d="M176.64,367.51H104.18V148.43h72.46Zm-70.6-1.8h68.69V150.26H106Z" transform="translate(-70.91 64.49)"/><rect class="c" x="42.84" y="213.84" width="1.83" height="217.27"/><rect class="c" x="55.69" y="213.84" width="1.83" height="217.27"/><rect class="c" x="68.55" y="213.84" width="1.83" height="217.27"/><rect class="c" x="81.4" y="213.84" width="1.83" height="217.27"/><rect class="c" x="94.26" y="213.84" width="1.83" height="217.27"/><path class="c" d="M168.64,12.51H112.18l28.19-77Zm-53.8-1.8h51.1L140.37-59.14Z" transform="translate(-70.91 64.49)"/><path class="c" d="M180.64,150.94h-80.5V70.4h80.5Zm-78.73-1.85h76.9V72.24H101.94Z" transform="translate(-70.91 64.49)"/><circle class="a" cx="69.46" cy="175.16" r="19.96"/><path class="c" d="M140.37,132a21.34,21.34,0,1,1,21.34-21.34A21.33,21.33,0,0,1,140.37,132Zm0-39.93A18.59,18.59,0,1,0,159,110.67a18.61,18.61,0,0,0-18.59-18.59Z" transform="translate(-70.91 64.49)"/><rect class="c" x="34.19" y="266.25" width="70.55" height="1.83"/><rect class="c" x="34.19" y="274.42" width="70.55" height="1.83"/><rect class="c" x="34.19" y="318.49" width="70.55" height="1.83"/><rect class="c" x="34.19" y="326.66" width="70.55" height="1.83"/><rect class="c" x="34.19" y="370.74" width="70.55" height="1.83"/><rect class="c" x="34.19" y="378.91" width="70.55" height="1.83"/><path class="c" d="M119.91,70.92H112.3V45h7.61Zm-5.77-1.83h3.94V46.84h-3.94Z" transform="translate(-70.91 64.49)"/><path class="c" d="M136.09,70.92h-7.61V45h7.61Zm-5.78-1.83h3.95V46.84h-3.95Z" transform="translate(-70.91 64.49)"/><path class="c" d="M152.27,70.92h-7.63V45h7.61Zm-5.78-1.83h3.94V46.84h-3.94Z" transform="translate(-70.91 64.49)"/><path class="c" d="M168.44,70.92h-7.61V45h7.61Zm-5.8-1.83h4V46.84h-4Z" transform="translate(-70.91 64.49)"/><path class="c" d="M177.22,42.87h-73.7L113,26.08h54.7ZM106.64,41h67.44l-7.44-13.11H114.09Z" transform="translate(-70.91 64.49)"/><path class="c" d="M168.17,27.92H112.64V10.71h55.59Zm-53.76-1.83h51.92V12.51H114.41Z" transform="translate(-70.91 64.49)"/><rect class="b" x="27.2" y="209.71" width="84.53" height="9.6"/><rect class="b" x="27.2" y="131.01" width="84.53" height="9.6"/><path class="c" d="M183.55,155.74H97.19V144.3h86.36ZM99,153.9h82.69v-7.76H99Z" transform="translate(-70.91 64.49)"/><path class="c" d="M183.55,77.09H97.19V65.61h86.36ZM99,75.25h82.69V67.49H99Z" transform="translate(-70.91 64.49)"/><path class="c" d="M128.16,23.67h-8.72V15h8.72Zm-6.88-1.83h5v-5h-5Z" transform="translate(-70.91 64.49)"/><path class="c" d="M139.21,23.67h-8.72V15h8.72Zm-6.89-1.83h5v-5h-5Z" transform="translate(-70.91 64.49)"/><path class="c" d="M150.25,23.67h-8.71V15h8.71Zm-6.88-1.83h5v-5h-5Z" transform="translate(-70.91 64.49)"/><path class="c" d="M161.3,23.67h-8.66V15h8.71Zm-6.88-1.83h5v-5h-5Z" transform="translate(-70.91 64.49)"/><path class="a" d="M582.11,287.39c0-90.63-27.19-164.1-60.74-164.1s-60.73,73.47-60.73,164.1a400.53,400.53,0,0,0,7.54,79.23H574.64A399,399,0,0,0,582.11,287.39Z" transform="translate(-70.91 64.49)"/><path class="b" d="M521.37,123.29a26.61,26.61,0,0,0-15.27,5.23c26.15,18.3,45.46,82.49,45.46,158.87A399,399,0,0,1,544,366.62h30.62a399,399,0,0,0,7.54-79.23C582.11,196.76,554.92,123.29,521.37,123.29Z" transform="translate(-70.91 64.49)"/><path class="c" d="M575.32,367.51H467.42l-.15-.73c-5-24.19-7.56-51.65-7.56-79.42,0-43.94,6.34-85.26,17.85-116.36,11.61-31.38,27.17-48.66,43.81-48.66s32.2,17.28,43.81,48.66C576.69,202.1,583,243.42,583,287.36c0,27.77-2.61,55.23-7.56,79.42Zm-106.4-1.83H573.83a402,402,0,0,0,7.37-78.32c0-90-26.84-163.19-59.83-163.19s-59.83,73.21-59.83,163.19a403.11,403.11,0,0,0,7.38,78.35Z" transform="translate(-70.91 64.49)"/><path class="e" d="M502.05,316.09a227.58,227.58,0,0,0,37.21,26.56c3.61-4.37,7-8.67,10.08-12.83a372.31,372.31,0,0,0,29.37-46.28,187.48,187.48,0,0,1-31.86-13.67A291.09,291.09,0,0,1,502.05,316.09Z" transform="translate(-70.91 64.49)"/><path class="e" d="M460.78,276c-.1,3.77-.15,7.58-.15,11.41a428.08,428.08,0,0,0,3,51A215.54,215.54,0,0,0,497.81,316,300.51,300.51,0,0,1,460.78,276Z" transform="translate(-70.91 64.49)"/><path class="e" d="M510.27,241.37a224.82,224.82,0,0,0,35.84,25c1.1-1.43,2.19-2.86,3.23-4.26a369.64,369.64,0,0,0,25.82-39.78,190.9,190.9,0,0,1-32.32-15.12A294.58,294.58,0,0,1,510.27,241.37Z" transform="translate(-70.91 64.49)"/><path class="e" d="M506.07,241.4A294.8,294.8,0,0,1,469.4,203l-.14.08a380.72,380.72,0,0,0-8.35,68.59l.22.3A220.94,220.94,0,0,0,506.07,241.4Z" transform="translate(-70.91 64.49)"/><path class="e" d="M537.47,344.76a230.28,230.28,0,0,1-37.58-26.94,219.23,219.23,0,0,1-34.61,22.77,307.89,307.89,0,0,0,22.39,26h29.47A291.4,291.4,0,0,0,537.47,344.76Z" transform="translate(-70.91 64.49)"/><path class="e" d="M540.46,205.76a235,235,0,0,1-36.14-27,226.1,226.1,0,0,1-32.5,22.79,290.72,290.72,0,0,0,36.33,38A290.65,290.65,0,0,0,540.46,205.76Z" transform="translate(-70.91 64.49)"/><path class="e" d="M544.4,268.51a226.45,226.45,0,0,1-36.21-25.34,223.74,223.74,0,0,1-45.35,31A297.1,297.1,0,0,0,500,314.23,287.75,287.75,0,0,0,544.4,268.51Z" transform="translate(-70.91 64.49)"/><path class="c" d="M465.28,340.59a219.23,219.23,0,0,0,34.61-22.77,230.28,230.28,0,0,0,37.58,26.94,291.83,291.83,0,0,1-20.33,21.86h3.92c6.86-6.8,13.16-13.71,18.84-20.48a187.31,187.31,0,0,0,35.74,15.23c.17-.9.34-1.81.5-2.72A184.62,184.62,0,0,1,541.74,344c3.52-4.27,6.81-8.48,9.84-12.55a375.15,375.15,0,0,0,29.83-47l.73.21c0-2.45,0-4.89-.1-7.31l-2,3.79a183.93,183.93,0,0,1-31.4-13.45c1-1.32,2-2.64,3-3.93a373,373,0,0,0,25.86-39.82c-.23-1.47-.46-2.92-.7-4.37l-.18.33a188.54,188.54,0,0,1-32-14.86q3.66-4.5,7-9c5.24-7,10-14,14.25-20.56-.38-1.11-.77-2.21-1.16-3.29-4.52,7.11-9.61,14.59-15.29,22.2-2.24,3-4.63,6.09-7.14,9.22A232.77,232.77,0,0,1,506.51,177a292.72,292.72,0,0,0,38.77-40.48c-.62-.72-1.25-1.4-1.87-2.07a290.57,290.57,0,0,1-39,40.73c-7-6.38-13.38-13-19.25-19.47-.44.87-.87,1.76-1.3,2.67,5.66,6.23,11.8,12.49,18.43,18.59a221.9,221.9,0,0,1-32.18,22.48h0c-.29,1.2-.56,2.41-.83,3.64l.14-.08a294.8,294.8,0,0,0,36.67,38.43A220.94,220.94,0,0,1,461.15,272l-.22-.3c0,1.44-.1,2.89-.13,4.34a300.12,300.12,0,0,0,37,40,216.29,216.29,0,0,1-34.16,22.35c.22,1.84.45,3.67.7,5.47,5.76,7.4,12.29,15.11,19.56,22.79h3.74A308,308,0,0,1,465.28,340.59Zm113.43-57a371.85,371.85,0,0,1-29.37,46.24c-3.1,4.16-6.47,8.46-10.08,12.83a228.24,228.24,0,0,1-37.21-26.57,290.83,290.83,0,0,0,44.8-46.18,188.29,188.29,0,0,0,31.86,13.59Zm-35.87-76.36a190.9,190.9,0,0,0,32.32,15.12,369.12,369.12,0,0,1-25.82,39.74c-1,1.4-2.13,2.83-3.23,4.26a224.82,224.82,0,0,1-35.84-25,292.47,292.47,0,0,0,32.57-34.2Zm-71-5.6a226.1,226.1,0,0,0,32.5-22.79,235,235,0,0,0,36.14,27,289.21,289.21,0,0,1-32.31,33.81,291.35,291.35,0,0,1-36.35-38.06Zm-9,72.57a223.74,223.74,0,0,0,45.35-31,226.28,226.28,0,0,0,36.21,25.31A287.49,287.49,0,0,1,500,314.19a296.62,296.62,0,0,1-37.12-40Z" transform="translate(-70.91 64.49)"/><rect class="a" x="164.49" y="413.55" width="148.11" height="17.56"/><path class="a" d="M309.46,109.93a86.76,86.76,0,1,0,86.75,86.77h0A86.76,86.76,0,0,0,309.46,109.93Zm0,160.17a73.41,73.41,0,1,1,73.4-73.42h0a73.41,73.41,0,0,1-73.4,73.41Z" transform="translate(-70.91 64.49)"/><path class="b" d="M309.46,109.93a92.64,92.64,0,0,0-9.85.58,86.62,86.62,0,0,1,54,27.58,73.37,73.37,0,0,1,0,117.25,86.37,86.37,0,0,1-54,27.56,86.76,86.76,0,1,0,19-172.48c-3-.32-6-.5-9.07-.52Z" transform="translate(-70.91 64.49)"/><path class="c" d="M309.46,284.37a87.68,87.68,0,1,1,87.67-87.69h0A87.76,87.76,0,0,1,309.46,284.37Zm0-173.52a85.84,85.84,0,1,0,85.84,85.84h0a85.93,85.93,0,0,0-85.84-85.84Zm0,160.16a74.32,74.32,0,1,1,74.32-74.32A74.31,74.31,0,0,1,309.46,271Zm0-146.81A72.49,72.49,0,1,0,382,196.69h0a72.57,72.57,0,0,0-72.49-72.49Z" transform="translate(-70.91 64.49)"/><path class="b" d="M319.35,100.09a9.89,9.89,0,1,1-9.89-9.89h0a9.89,9.89,0,0,1,9.89,9.87Z" transform="translate(-70.91 64.49)"/><path class="b" d="M269.7,108.09a9.89,9.89,0,1,1-13.51-3.62,9.89,9.89,0,0,1,13.51,3.62Z" transform="translate(-70.91 64.49)"/><path class="b" d="M230.7,139.8a9.89,9.89,0,1,1-13.5,3.65h0A9.91,9.91,0,0,1,230.7,139.8Z" transform="translate(-70.91 64.49)"/><path class="b" d="M212.81,186.8a9.89,9.89,0,1,1-9.89,9.89,9.89,9.89,0,0,1,9.89-9.89Z" transform="translate(-70.91 64.49)"/><path class="b" d="M220.81,236.45A9.9,9.9,0,1,1,217.22,250v0h0A9.9,9.9,0,0,1,220.81,236.45Z" transform="translate(-70.91 64.49)"/><path class="b" d="M252.64,275.45A9.89,9.89,0,1,1,256.28,289h0A9.9,9.9,0,0,1,252.64,275.45Z" transform="translate(-70.91 64.49)"/><path class="b" d="M299.64,293.34a9.89,9.89,0,1,1,9.89,9.89,9.89,9.89,0,0,1-9.89-9.89Z" transform="translate(-70.91 64.49)"/><path class="b" d="M349.22,285.33a9.88,9.88,0,1,1,13.5,3.62,9.88,9.88,0,0,1-13.5-3.62Z" transform="translate(-70.91 64.49)"/><path class="b" d="M388.21,253.58A9.89,9.89,0,1,1,401.72,250a9.89,9.89,0,0,1-13.51,3.62Z" transform="translate(-70.91 64.49)"/><path class="b" d="M406.1,206.58a9.89,9.89,0,1,1,9.89-9.89,9.89,9.89,0,0,1-9.89,9.89Z" transform="translate(-70.91 64.49)"/><path class="b" d="M398.1,156.93a9.89,9.89,0,1,1,3.62-13.51,9.87,9.87,0,0,1-3.62,13.51Z" transform="translate(-70.91 64.49)"/><path class="b" d="M366.34,117.94a9.89,9.89,0,1,1-3.62-13.51,9.87,9.87,0,0,1,3.62,13.51Z" transform="translate(-70.91 64.49)"/><path class="c" d="M309.46,110.85A10.81,10.81,0,1,1,320.26,100h0A10.82,10.82,0,0,1,309.46,110.85Zm0-19.78a9,9,0,1,0,9,9h0A9,9,0,0,0,309.46,91.07Z" transform="translate(-70.91 64.49)"/><path class="c" d="M261.15,123.8a10.8,10.8,0,1,1,9.34-16.21h0a10.8,10.8,0,0,1-9.34,16.21Zm0-19.78a9,9,0,1,0,7.78,4.49h0A9,9,0,0,0,261.15,104Z" transform="translate(-70.91 64.49)"/><path class="c" d="M225.74,159.17a10.58,10.58,0,0,1-5.38-1.44,10.84,10.84,0,1,1,5.38,1.44Zm0-19.77a9,9,0,1,0,4.48,1.2,9.27,9.27,0,0,0-4.45-1.2Z" transform="translate(-70.91 64.49)"/><path class="c" d="M212.81,207.51a10.81,10.81,0,1,1,.05,0h-.05Zm0-19.78a9,9,0,1,0,9,9,9,9,0,0,0-9-9Z" transform="translate(-70.91 64.49)"/><path class="c" d="M225.78,255.82a10.8,10.8,0,0,1-5.42-20.16h0a10.8,10.8,0,1,1,5.42,20.16Zm-4.51-18.58a9,9,0,1,0,12.29,3.32v-.05a9,9,0,0,0-12.26-3.29Z" transform="translate(-70.91 64.49)"/><path class="c" d="M261.12,291.2a10.81,10.81,0,1,1,2.81-.37A9.86,9.86,0,0,1,261.12,291.2Zm0-19.79a10.22,10.22,0,0,0-2.34.31,9.12,9.12,0,0,0-5.45,4.18h0a9,9,0,1,0,7.79-4.49Z" transform="translate(-70.91 64.49)"/><path class="c" d="M309.46,304.14a10.81,10.81,0,1,1,10.8-10.82h0a10.78,10.78,0,0,1-10.76,10.82Zm0-19.77a9,9,0,1,0,9,9h0A9,9,0,0,0,309.46,284.37Z" transform="translate(-70.91 64.49)"/><path class="c" d="M357.8,291.2a10.82,10.82,0,1,1,5.38-1.45A10.49,10.49,0,0,1,357.8,291.2Zm0-19.79a9,9,0,1,0,2.33.31,10.39,10.39,0,0,0-2.36-.31Z" transform="translate(-70.91 64.49)"/><path class="c" d="M406.1,207.51a10.81,10.81,0,1,1,10.81-10.81h0A10.81,10.81,0,0,1,406.1,207.51Zm0-19.78a9,9,0,1,0,9,9,9,9,0,0,0-9-9Z" transform="translate(-70.91 64.49)"/><path class="c" d="M393.17,159.17a10.78,10.78,0,1,1,5.42-1.45A10.66,10.66,0,0,1,393.17,159.17Zm0-19.77a9.12,9.12,0,1,0,3.47,17.36,7.52,7.52,0,0,0,1.06-.62,9,9,0,0,0-4.56-16.74Z" transform="translate(-70.91 64.49)"/><path class="c" d="M357.76,123.8A10.8,10.8,0,1,1,368.64,113a10.66,10.66,0,0,1-1.45,5.37h0A10.78,10.78,0,0,1,357.76,123.8Zm0-19.78a9,9,0,1,0,7.79,13.49h0a9,9,0,0,0-3.28-12.26,9.27,9.27,0,0,0-4.48-1.23Z" transform="translate(-70.91 64.49)"/><rect class="c" x="237.63" y="187.78" width="1.83" height="146.81"/><rect class="c" x="308.54" y="123.29" width="1.83" height="146.81" transform="translate(-127.8 245.57) rotate(-30)"/><rect class="c" x="308.55" y="123.3" width="1.83" height="146.81" transform="translate(-86.53 430.84) rotate(-60)"/><rect class="c" x="165.14" y="260.27" width="146.81" height="1.83"/><rect class="c" x="236.05" y="195.88" width="146.81" height="1.83" transform="translate(-127.85 245.51) rotate(-29.99)"/><rect class="c" x="236.03" y="195.7" width="146.81" height="1.83" transform="translate(-86.44 430.83) rotate(-60.01)"/><polygon class="a" points="211.45 405.32 200.12 404.03 230.69 261.18 242.02 262.47 211.45 405.32"/><polygon class="a" points="265.65 405.32 276.98 404.03 246.41 261.18 235.07 262.47 265.65 405.32"/><polygon class="a" points="265.65 405.32 276.98 404.03 246.41 261.18 235.07 262.47 265.65 405.32"/><path class="c" d="M283.08,341.83l-13.16-1.5.21-1,30.75-143.66L314,197.16l-.21,1Zm-11-3.09,9.5,1.08,30.19-141-9.5-1.08Z" transform="translate(-70.91 64.49)"/><path class="c" d="M335.84,341.83l-.18-.81L304.88,197.18,318,195.69l.17.81L349,340.33Zm-28.75-143,30.19,141,9.5-1.08-30.14-141Z" transform="translate(-70.91 64.49)"/><circle class="b" cx="238.55" cy="261.18" r="18.14"/><path class="c" d="M309.46,215.74a19,19,0,1,1,19-19,19,19,0,0,1-19,19Zm0-36.27a17.22,17.22,0,1,0,17.18,17.26v0h0a17.24,17.24,0,0,0-17.22-17.18Z" transform="translate(-70.91 64.49)"/><rect class="a" x="185.51" y="398.48" width="106.07" height="15.07"/><polygon class="b" points="291.58 413.55 291.58 398.48 259.81 398.48 259.81 413.55 280.83 413.55 280.83 431.11 312.6 431.11 312.6 413.55 291.58 413.55"/><path class="c" d="M363.41,350H255.5V333.09H363.41Zm-106.07-1.84h104.3V334.91H257.34Z" transform="translate(-70.91 64.49)"/><path class="c" d="M384.21,367.24h-150l.22-19.42h150Zm-147.89-1.8H382.64V349.71H236.32Z" transform="translate(-70.91 64.49)"/><path class="a" d="M186.33,323.19a14.12,14.12,0,0,1,27.26-7.37,14,14,0,0,1,.49,3.69,13.39,13.39,0,0,1-.44,3.68,13,13,0,1,1-13.63,21,13,13,0,1,1-13.63-21Z" transform="translate(-70.91 64.49)"/><path class="b" d="M213.64,323.19a13.38,13.38,0,0,0,.49-3.68,14.11,14.11,0,0,0-20-12.84,14.13,14.13,0,0,1,8.26,12.84,13.78,13.78,0,0,1-.49,3.68,13,13,0,0,1,2,24,13,13,0,0,0,11.94-23.1h0a14.33,14.33,0,0,0-2.22-.9Z" transform="translate(-70.91 64.49)"/><path class="c" d="M209.72,349.51a13.84,13.84,0,0,1-9.76-4,13.89,13.89,0,1,1-14.72-22.88,15,15,0,0,1,29.1-7.3,13.94,13.94,0,0,1,.3,1.54,14.69,14.69,0,0,1,0,5.76,13.9,13.9,0,0,1-5,26.89ZM200,343.25h0a1.05,1.05,0,0,1,.69.31,12.06,12.06,0,1,0,12.67-19.47.9.9,0,0,1-.61-1.11,13.2,13.2,0,1,0-25.5,0,.89.89,0,0,1-.57,1.11,12.07,12.07,0,0,0,6.26,23.32c.25-.07.5-.14.74-.23a11.86,11.86,0,0,0,5.62-3.67,1.16,1.16,0,0,1,.69-.29Z" transform="translate(-70.91 64.49)"/><path class="c" d="M199.73,367.44a.92.92,0,0,1-.92-.92h0V320.46a.92.92,0,1,1,1.84,0v46.06a.92.92,0,0,1-.92.92Z" transform="translate(-70.91 64.49)"/><path class="c" d="M200,333.33a.89.89,0,0,1-.92-.87v0a1,1,0,0,1,.24-.64l5.78-6.36a1,1,0,0,1,1.3-.06.92.92,0,0,1,.06,1.29L200.64,333A.85.85,0,0,1,200,333.33Z" transform="translate(-70.91 64.49)"/><path class="c" d="M200,340.09a.76.76,0,0,1-.52-.17l-7.55-5.25a.91.91,0,0,1-.36-1.23v0a.94.94,0,0,1,1.26-.35l.14.1,7.54,5.25a.93.93,0,0,1,.23,1.29h0A.88.88,0,0,1,200,340.09Z" transform="translate(-70.91 64.49)"/><path class="a" d="M468.64,317.25a16,16,0,1,0-30.94,0,14.73,14.73,0,0,0,8.79,28.12,14.5,14.5,0,0,0,6.68-4.35,14.73,14.73,0,1,0,15.47-23.77Z" transform="translate(-70.91 64.49)"/><path class="b" d="M435.82,344.63a14.53,14.53,0,0,0,11.06.6" transform="translate(-70.91 64.49)"/><path class="b" d="M468.64,317.25a16,16,0,0,0-21.73-18.92,16,16,0,0,1,9.2,18.92A14.72,14.72,0,0,1,458,344.63,14.73,14.73,0,0,0,470.59,318,18.32,18.32,0,0,0,468.64,317.25Z" transform="translate(-70.91 64.49)"/><path class="c" d="M464.21,347a15.6,15.6,0,0,1-11.07-4.6,15.65,15.65,0,0,1-22.2-22.06,15.93,15.93,0,0,1,5.67-3.65,17.83,17.83,0,0,1-.38-3.58,16.94,16.94,0,0,1,33.88,0,16.49,16.49,0,0,1-.38,3.58A15.65,15.65,0,0,1,464.24,347Zm-11.07-6.87a1.05,1.05,0,0,1,.69.31,13.81,13.81,0,1,0,14.51-22.31.92.92,0,0,1-.62-1.11,14.5,14.5,0,0,0,.52-3.94,15.1,15.1,0,0,0-30.2,0,15.33,15.33,0,0,0,.52,3.94.91.91,0,0,1-.62,1.11,13.81,13.81,0,0,0,8.27,26.36,13.6,13.6,0,0,0,6.24-4.07A1.16,1.16,0,0,1,453.14,340.09Z" transform="translate(-70.91 64.49)"/><path class="c" d="M453.13,366.86a.92.92,0,0,1-.92-.92h0V313.71a.93.93,0,0,1,.93-.91.91.91,0,0,1,.91.91h0V366A.92.92,0,0,1,453.13,366.86Z" transform="translate(-70.91 64.49)"/><path class="c" d="M453.14,328.64a.93.93,0,0,1-.68-.3l-6.56-7.25a.92.92,0,0,1,1.36-1.24l6.56,7.22a.92.92,0,0,1,0,1.29h0a.85.85,0,0,1-.62.24Z" transform="translate(-70.91 64.49)"/><path class="c" d="M453.14,336.31a.9.9,0,0,1-.9-.91v0a1,1,0,0,1,.38-.74l8.56-6a.94.94,0,0,1,1.21.48.9.9,0,0,1-.21,1l-8.56,6A.71.71,0,0,1,453.14,336.31Z" transform="translate(-70.91 64.49)"/><path class="a" d="M108.2,322.33A14.1,14.1,0,0,0,98.27,305h0A14.13,14.13,0,0,0,80.94,315h0a14.44,14.44,0,0,0-.49,3.69,15.16,15.16,0,0,0,.48,3.68,13,13,0,0,0,7.77,24.83h0a12.91,12.91,0,0,0,5.94-3.87A13,13,0,0,0,113,344.59h0a13,13,0,0,0,1.3-18.33h0a13.12,13.12,0,0,0-6-3.91Z" transform="translate(-70.91 64.49)"/><path class="b" d="M79.3,346.51a12.51,12.51,0,0,0,5.51,1.24,12,12,0,0,0,4.24-.71" transform="translate(-70.91 64.49)"/><path class="b" d="M108.2,322.33A14.1,14.1,0,0,0,98.27,305h0a14.28,14.28,0,0,0-9.21.63,14.12,14.12,0,0,1,8.11,16.68,13,13,0,0,1,8.53,16.29h0a13,13,0,0,1-6.9,7.89,13,13,0,0,0,17.42-5.87h0a13,13,0,0,0-5.88-17.41h0a14.91,14.91,0,0,0-2.13-.83Z" transform="translate(-70.91 64.49)"/><path class="c" d="M104.32,348.62a13.8,13.8,0,0,1-9.75-4,13.87,13.87,0,0,1-19.63-.1l0,0A13.89,13.89,0,0,1,75,324.85h0a14,14,0,0,1,4.8-3.1A15,15,0,0,1,92,304.35h0a15,15,0,0,1,17.4,12.14h0a14.51,14.51,0,0,1,.22,2.17,13.83,13.83,0,0,1-.32,3.08,13.91,13.91,0,0,1-5,26.89Zm-9.68-6.26h0a1.07,1.07,0,0,1,.68.31A12,12,0,1,0,108,323.23a.94.94,0,0,1-.62-1.11,12.41,12.41,0,0,0,.46-3.44,13.21,13.21,0,1,0-25.95,3.44.91.91,0,0,1-.62,1.11,12.08,12.08,0,0,0,7.2,23.06h0a12,12,0,0,0,5.48-3.58A1,1,0,0,1,94.64,342.36Z" transform="translate(-70.91 64.49)"/><path class="c" d="M94.64,366.53a.91.91,0,0,1-1-.79v-46.2a.92.92,0,0,1,1-.81.9.9,0,0,1,.81.81v46.12A.91.91,0,0,1,94.64,366.53Z" transform="translate(-70.91 64.49)"/><path class="c" d="M94.64,332.51a.85.85,0,0,1-.68-.3l-5.79-6.36a.91.91,0,0,1,.17-1.27h0a.93.93,0,0,1,1.18,0l5.78,6.36a.91.91,0,0,1,0,1.29h0A.78.78,0,0,1,94.64,332.51Z" transform="translate(-70.91 64.49)"/><path class="c" d="M94.64,339.24a.9.9,0,0,1-.76-.39.94.94,0,0,1,.23-1.28l7.55-5.25a.94.94,0,0,1,1.22.43.89.89,0,0,1-.22,1.07l-7.57,5.27A.74.74,0,0,1,94.64,339.24Z" transform="translate(-70.91 64.49)"/><path class="c" d="M393.16,255.74A10.81,10.81,0,1,1,404,244.93h0A10.81,10.81,0,0,1,393.16,255.74Zm0-19.78a9,9,0,1,0,9,9,9,9,0,0,0-9-9Z" transform="translate(-70.91 64.49)"/></svg>